<svg width="20" height="20" viewBox="0 0 20 20" fill="none" xmlns="http://www.w3.org/2000/svg">
<path d="M4.24077 0.800391C4.24077 0.560391 4.04077 0.400391 3.84077 0.400391C3.64077 0.400391 3.44077 0.600391 3.44077 0.800391V2.68039H4.24077V0.800391ZM6.72077 0.800391C6.72077 0.560391 6.52077 0.400391 6.32077 0.400391C6.12077 0.400391 5.92077 0.600391 5.92077 0.800391V2.68039H6.72077V0.800391ZM14.1208 0.800391C14.1208 0.560391 13.9208 0.400391 13.7208 0.400391C13.4808 0.400391 13.3208 0.600391 13.3208 0.800391V2.68039H14.1208V0.800391ZM16.5608 0.800391C16.5608 0.560391 16.3608 0.400391 16.1608 0.400391C15.9608 0.400391 15.7608 0.600391 15.7608 0.800391V2.68039H16.5608V0.800391Z" fill="#7A7A7A"/>
<path d="M18.5599 2.68066H16.5599V4.24066C16.5599 4.48066 16.3599 4.64066 16.1599 4.64066C15.9599 4.64066 15.7599 4.44066 15.7599 4.24066V2.68066H14.1199V4.24066C14.1199 4.48066 13.9199 4.64066 13.7199 4.64066C13.4799 4.64066 13.3199 4.44066 13.3199 4.24066V2.68066H6.71991V4.24066C6.71991 4.48066 6.51991 4.64066 6.31991 4.64066C6.11991 4.64066 5.91991 4.44066 5.91991 4.24066V2.68066H4.27991V4.24066C4.27991 4.48066 4.07991 4.64066 3.87991 4.64066C3.67991 4.64066 3.47991 4.44066 3.47991 4.24066V2.68066H1.47991C1.03991 2.68066 0.679906 3.04066 0.679906 3.48066V5.80066H19.4799V3.48066C19.3999 3.04066 19.0399 2.68066 18.5599 2.68066ZM0.599906 18.8007C0.599906 19.2407 0.959906 19.6007 1.39991 19.6007H18.5599C18.9999 19.6007 19.3599 19.2407 19.3599 18.8007V6.64067H0.559906V18.8007H0.599906ZM15.8799 8.24067H17.8799V10.2407H15.8799V8.24067ZM15.8799 12.1207H17.8799V14.1207H15.8799V12.1207ZM12.4399 8.24067H14.4399V10.2407H12.4399V8.24067ZM12.4399 12.1207H14.4399V14.1207H12.4399V12.1207ZM8.99991 8.24067H10.9999V10.2407H8.99991V8.24067ZM8.99991 12.1207H10.9999V14.1207H8.99991V12.1207ZM8.99991 15.9607H10.9999V17.9607H8.99991V15.9607ZM5.55991 12.1207H7.55991V14.1207H5.55991V12.1207ZM5.55991 15.9607H7.55991V17.9607H5.55991V15.9607ZM2.07991 12.1207H4.07991V14.1207H2.07991V12.1207ZM2.07991 15.9607H4.07991V17.9607H2.07991V15.9607Z" fill="#7A7A7A"/>
</svg>
