<svg width="20" height="20" viewBox="0 0 20 20" fill="none" xmlns="http://www.w3.org/2000/svg">
<path d="M3.4375 17.8125C3.4375 18.144 3.5692 18.462 3.80362 18.6964C4.03804 18.9308 4.35598 19.0625 4.6875 19.0625H15.3125C15.644 19.0625 15.962 18.9308 16.1964 18.6964C16.4308 18.462 16.5625 18.144 16.5625 17.8125V16.5625H3.4375V17.8125ZM15.3125 2.1875H14.2188V2.8125C14.2188 3.14402 14.0871 3.46196 13.8526 3.69638C13.6182 3.9308 13.3003 4.0625 12.9688 4.0625C12.6372 4.0625 12.3193 3.9308 12.0849 3.69638C11.8504 3.46196 11.7188 3.14402 11.7188 2.8125V2.1875H8.28125V2.8125C8.28125 3.14402 8.14955 3.46196 7.91513 3.69638C7.68071 3.9308 7.36277 4.0625 7.03125 4.0625C6.69973 4.0625 6.38179 3.9308 6.14737 3.69638C5.91295 3.46196 5.78125 3.14402 5.78125 2.8125V2.1875H4.6875C4.35598 2.1875 4.03804 2.3192 3.80362 2.55362C3.5692 2.78804 3.4375 3.10598 3.4375 3.4375V15.9375H16.5625V3.4375C16.5625 3.10598 16.4308 2.78804 16.1964 2.55362C15.962 2.3192 15.644 2.1875 15.3125 2.1875ZM13.125 10H10.3125V12.8125C10.3125 12.8954 10.2796 12.9749 10.221 13.0335C10.1624 13.0921 10.0829 13.125 10 13.125C9.91712 13.125 9.83763 13.0921 9.77903 13.0335C9.72042 12.9749 9.6875 12.8954 9.6875 12.8125V10H6.875C6.79212 10 6.71263 9.96708 6.65403 9.90847C6.59542 9.84987 6.5625 9.77038 6.5625 9.6875C6.5625 9.60462 6.59542 9.52513 6.65403 9.46653C6.71263 9.40792 6.79212 9.375 6.875 9.375H9.6875V6.5625C9.6875 6.47962 9.72042 6.40013 9.77903 6.34153C9.83763 6.28292 9.91712 6.25 10 6.25C10.0829 6.25 10.1624 6.28292 10.221 6.34153C10.2796 6.40013 10.3125 6.47962 10.3125 6.5625V9.375H13.125C13.2079 9.375 13.2874 9.40792 13.346 9.46653C13.4046 9.52513 13.4375 9.60462 13.4375 9.6875C13.4375 9.77038 13.4046 9.84987 13.346 9.90847C13.2874 9.96708 13.2079 10 13.125 10Z" fill="#7A7A7A"/>
<path d="M7.03125 3.4375C7.19701 3.4375 7.35598 3.37165 7.47319 3.25444C7.5904 3.13723 7.65625 2.97826 7.65625 2.8125V1.5625C7.65625 1.39674 7.5904 1.23777 7.47319 1.12056C7.35598 1.00335 7.19701 0.9375 7.03125 0.9375C6.86549 0.9375 6.70652 1.00335 6.58931 1.12056C6.4721 1.23777 6.40625 1.39674 6.40625 1.5625V2.8125C6.40625 2.97826 6.4721 3.13723 6.58931 3.25444C6.70652 3.37165 6.86549 3.4375 7.03125 3.4375ZM12.9688 3.4375C13.1345 3.4375 13.2935 3.37165 13.4107 3.25444C13.5279 3.13723 13.5938 2.97826 13.5938 2.8125V1.5625C13.5938 1.39674 13.5279 1.23777 13.4107 1.12056C13.2935 1.00335 13.1345 0.9375 12.9688 0.9375C12.803 0.9375 12.644 1.00335 12.5268 1.12056C12.4096 1.23777 12.3438 1.39674 12.3438 1.5625V2.8125C12.3438 2.97826 12.4096 3.13723 12.5268 3.25444C12.644 3.37165 12.803 3.4375 12.9688 3.4375Z" fill="#7A7A7A"/>
</svg>
