<svg width="36" height="30" viewBox="0 0 36 30" fill="none" xmlns="http://www.w3.org/2000/svg">
<path d="M17.935 0.00200235C17.7266 0.0129535 17.5243 0.0758808 17.3465 0.185048C17.1687 0.294216 17.021 0.44615 16.917 0.627002L1.04048 28.1246C0.930831 28.3145 0.873086 28.53 0.873047 28.7493C0.873008 28.9686 0.930675 29.1841 1.04026 29.3741C1.14984 29.5641 1.30749 29.7219 1.49736 29.8317C1.68723 29.9414 1.90265 29.9994 2.12198 29.9996H33.8774C34.0967 29.9994 34.3121 29.9415 34.502 29.8317C34.6919 29.7219 34.8496 29.5641 34.9592 29.3741C35.0688 29.1841 35.1265 28.9686 35.1264 28.7493C35.1264 28.53 35.0686 28.3145 34.959 28.1246L19.0825 0.627002C18.9675 0.427126 18.7994 0.262956 18.5969 0.152652C18.3944 0.0423478 18.1653 -0.00979091 17.935 0.00200235ZM17.9987 9.98248C18.6297 9.98248 19.2606 10.4044 19.2487 11.2496V18.7154C19.2612 19.4048 18.708 19.9712 18.011 19.9825C17.314 19.9937 16.7362 19.4201 16.7487 18.7154V11.2496C16.7362 10.4044 17.3677 9.98248 17.9987 9.98248ZM18.075 22.4996C18.1167 22.5 18.1585 22.5025 18.2 22.5071C18.6741 22.5386 19.1185 22.7491 19.4435 23.0958C19.7684 23.4425 19.9496 23.8996 19.9504 24.3747C19.9504 24.621 19.9019 24.8648 19.8076 25.0923C19.7134 25.3198 19.5753 25.5265 19.4012 25.7006C19.2271 25.8747 19.0204 26.0128 18.7929 26.107C18.5654 26.2012 18.3216 26.2497 18.0754 26.2497C17.8291 26.2497 17.5853 26.2012 17.3578 26.107C17.1303 26.0128 16.9236 25.8747 16.7495 25.7006C16.5754 25.5265 16.4373 25.3198 16.3431 25.0923C16.2489 24.8648 16.2004 24.621 16.2004 24.3747C16.2003 23.8943 16.3847 23.4323 16.7154 23.0838C17.0461 22.7354 17.498 22.5272 17.9777 22.5022C17.9819 22.5022 17.9861 22.5022 17.9902 22.5022C18.0194 22.5003 18.0485 22.4995 18.0777 22.4997L18.075 22.4996Z" fill="#EF4444"/>
</svg>
