<svg width="30" height="30" viewBox="0 0 30 30" fill="none" xmlns="http://www.w3.org/2000/svg">
<path d="M15 0C23.2843 0 30 6.71573 30 15C30 23.2843 23.2843 30 15 30C6.71573 30 0 23.2843 0 15C0 6.71573 6.71573 0 15 0ZM20.3007 10.41L13.1238 17.6061L9.63388 14.1161C9.14573 13.628 8.35427 13.628 7.86612 14.1161C7.37796 14.6043 7.37796 15.3957 7.86612 15.8839L12.2411 20.2589C12.7297 20.7475 13.5221 20.747 14.0101 20.2577L22.0708 12.1754C22.5583 11.6865 22.5573 10.8951 22.0685 10.4076C21.5796 9.92009 20.7882 9.92114 20.3007 10.41Z" fill="#2D2D2D"/>
</svg>
