<svg width="19" height="19" viewBox="0 0 19 19" fill="none" xmlns="http://www.w3.org/2000/svg">
<path fill-rule="evenodd" clip-rule="evenodd" d="M17.0072 11.001C17.347 11.1815 17.6092 11.4665 17.7936 11.7515C18.1528 12.3405 18.1237 13.0625 17.7742 13.699L17.0946 14.839C16.7354 15.447 16.0655 15.827 15.3762 15.827C15.0364 15.827 14.6577 15.732 14.3471 15.542C14.0946 15.3805 13.8034 15.3235 13.4927 15.3235C12.5316 15.3235 11.7258 16.112 11.6966 17.0525C11.6966 18.145 10.8034 19 9.68695 19H8.36658C7.24038 19 6.34719 18.145 6.34719 17.0525C6.32777 16.112 5.52196 15.3235 4.56081 15.3235C4.24043 15.3235 3.94917 15.3805 3.70645 15.542C3.39578 15.732 3.00743 15.827 2.67734 15.827C1.97832 15.827 1.30843 15.447 0.949212 14.839L0.279319 13.699C-0.0798992 13.0815 -0.0993164 12.3405 0.259902 11.7515C0.415239 11.4665 0.706497 11.1815 1.03659 11.001C1.30843 10.868 1.48318 10.6495 1.64823 10.393C2.13366 9.576 1.8424 8.5025 1.01717 8.018C0.0560211 7.4765 -0.254654 6.27 0.298736 5.3295L0.949212 4.2085C1.51231 3.268 2.71618 2.9355 3.68704 3.4865C4.53168 3.9425 5.62875 3.6385 6.12389 2.831C6.27923 2.565 6.36661 2.28 6.34719 1.995C6.32777 1.6245 6.43457 1.273 6.61903 0.988C6.97825 0.399 7.62873 0.019 8.33745 0H9.70636C10.4248 0 11.0753 0.399 11.4345 0.988C11.6092 1.273 11.7258 1.6245 11.6966 1.995C11.6772 2.28 11.7646 2.565 11.9199 2.831C12.4151 3.6385 13.5121 3.9425 14.3665 3.4865C15.3276 2.9355 16.5412 3.268 17.0946 4.2085L17.7451 5.3295C18.3082 6.27 17.9975 7.4765 17.0266 8.018C16.2014 8.5025 15.9102 9.576 16.4053 10.393C16.5606 10.6495 16.7354 10.868 17.0072 11.001ZM6.27928 9.50949C6.27928 11.001 7.51227 12.1885 9.03652 12.1885C10.5608 12.1885 11.7646 11.001 11.7646 9.50949C11.7646 8.01799 10.5608 6.82099 9.03652 6.82099C7.51227 6.82099 6.27928 8.01799 6.27928 9.50949Z" fill="#7A7A7A"/>
</svg>
